# xmcd
#
# Track frame offsets:
#	150
#	29098
#	51335
#	81326
#	105375
#	128600
#	154859
#	172237
#	200008
#
# Disc length: 3317 seconds
#
# Revision: 1
# Processed by: cddbd v1.5.2PL0 Copyright (c) Steve Scherf et al.
# Submitted via: audiograbber 1.83.01
#
DISCID=7d0cf309
DTITLE=A Storm Of Light - As The Valley Of Death Becomes Us, Our Silver Memorie
DTITLE=s Fade
DYEAR=2011
DGENRE=post-metal
TTITLE0=Missing
TTITLE1=Collapse
TTITLE2=Black Wolves
TTITLE3=Destroyer
TTITLE4=Wretched Valley
TTITLE5=Silver
TTITLE6=Leave No Wounds
TTITLE7=Death's Head
TTITLE8=Wasteland
EXTD=
EXTT0=
EXTT1=
EXTT2=
EXTT3=
EXTT4=
EXTT5=
EXTT6=
EXTT7=
EXTT8=
PLAYORDER=
